<svg width="41" height="45" viewBox="0 0 41 45" fill="none" xmlns="http://www.w3.org/2000/svg">
<path d="M10.5693 30.6425C10.5693 30.6425 6.60993 32.0238 4.41758 31.7182C4.10345 31.6737 3.94639 31.3363 4.10999 31.0753C4.98694 29.7259 7.79446 25.8749 12.9449 22.7368C12.9449 22.7368 12.4737 38.9556 17.8728 43.7677C19.2274 44.9771 21.3085 45.0726 22.7287 43.9269C24.1488 42.7811 25.7325 40.3941 26.4131 35.3719L22.7941 34.6781C22.7941 34.6781 21.4263 41.7181 20.0062 40.6233C20.0062 40.6233 18.8675 40.3559 17.6764 32.603C17.1856 29.3949 16.9565 26.155 16.9435 22.9087C16.9369 21.0182 17.0416 19.2805 16.433 18.2747C16.217 17.9247 15.844 17.6955 15.4317 17.6446C14.7904 17.5618 13.6713 17.6128 12.4802 18.5803C12.4671 18.5803 -0.346705 26.8615 0.00668931 31.2345C0.360084 35.6074 3.86131 35.4356 3.86131 35.4356C3.86131 35.4356 9.67923 35.2637 11.8716 33.9906C11.8716 33.9906 11.2761 31.9156 10.5693 30.6425Z" fill="#0972FF"/>
<path d="M32.6237 26.5751C32.6237 26.5751 35.8043 29.2549 36.6027 31.2663C36.7139 31.5527 36.4914 31.8583 36.1773 31.8392C34.5412 31.7564 29.7049 31.2663 24.3713 28.4465C24.3713 28.4465 39.1353 20.8845 40.7911 13.9463C41.2099 12.2023 40.2675 10.3945 38.5529 9.75162C36.8383 9.10873 33.913 8.94323 29.0767 10.8274L30.235 14.2328C30.235 14.2328 37.2113 11.9349 36.9299 13.679C36.9299 13.679 37.2506 14.7738 30.8895 19.5924C28.2586 21.5847 25.4642 23.367 22.5651 24.971C20.8701 25.9067 19.2667 26.6642 18.6712 27.6763C18.4618 28.0327 18.4421 28.4592 18.5992 28.8348C18.8413 29.414 19.4369 30.3433 20.8832 30.878C20.8832 30.878 34.587 37.6762 38.3304 35.2255C42.0738 32.7749 40.2021 29.8978 40.2021 29.8978C40.2021 29.8978 37.1917 25.0538 34.9797 23.8189C34.9797 23.8189 33.409 25.3402 32.6237 26.5687V26.5751Z" fill="#0972FF"/>
<path d="M17.9377 9.82201C17.9377 9.82201 18.6641 5.79278 20.0253 4.08688C20.2151 3.845 20.6012 3.87682 20.7518 4.14417C21.524 5.5509 23.5789 9.83473 23.8341 15.7354C23.8341 15.7354 9.57402 7.31408 2.60429 9.50374C0.850407 10.0575 -0.262132 11.7698 0.0519965 13.5266C0.366125 15.2834 1.72735 17.8168 5.87646 20.8721L8.28478 18.1542C8.28478 18.1542 2.66973 13.5202 4.35163 12.8582C4.35163 12.8582 5.15659 12.0244 12.676 14.8569C15.7846 16.0282 18.795 17.4349 21.7007 19.0326C23.3957 19.9619 24.8943 20.9103 26.0919 20.8912C26.5108 20.8849 26.8969 20.6812 27.1521 20.3566C27.5382 19.8537 28.0487 18.8798 27.7804 17.3967C27.7804 17.3967 26.7202 2.4701 22.6365 0.605065C18.5529 -1.25996 16.9757 1.78901 16.9757 1.78901C16.9757 1.78901 14.2532 6.79213 14.3056 9.27459C14.3056 9.27459 16.4587 9.80291 17.9442 9.82837L17.9377 9.82201Z" fill="#0972FF"/>
</svg>
