<svg width="30" height="29" viewBox="0 0 30 29" fill="none" xmlns="http://www.w3.org/2000/svg">
<path d="M0.428739 11.0082C2.35235 3.24086 10.2143 -1.49347 17.9881 0.427991C25.7633 2.34946 30.5037 10.2011 28.58 17.967C26.6557 25.7328 18.7952 30.4693 11.02 28.5471C3.24622 26.6264 -1.49708 18.774 0.428739 11.0082Z" fill="#FFD300"/>
<path d="M0.844973 9.62206H28.1619C26.5813 5.20614 22.8868 1.63907 17.9864 0.427786C10.6871 -1.37703 3.30917 2.6882 0.844238 9.62206" fill="#221C10"/>
<path d="M28.6947 17.4657C28.7013 17.4348 28.7072 17.404 28.7138 17.3732C28.7248 17.3197 28.7351 17.2654 28.7454 17.2118C28.7512 17.181 28.7571 17.1495 28.763 17.1179C28.7733 17.0621 28.7836 17.0064 28.7931 16.9506C28.7982 16.9227 28.8027 16.8941 28.8078 16.8663C28.8195 16.7966 28.8306 16.7269 28.8408 16.6572C28.843 16.6432 28.8453 16.6293 28.8475 16.6161C28.8599 16.5324 28.8717 16.4488 28.8827 16.3652C28.8856 16.3432 28.8886 16.3211 28.8908 16.2991C28.8989 16.2375 28.9062 16.1766 28.9136 16.115C28.9165 16.0856 28.9202 16.0563 28.9231 16.0277C28.929 15.9727 28.9349 15.9176 28.94 15.8626C28.9429 15.8325 28.9459 15.8017 28.9488 15.7716C28.954 15.7159 28.9584 15.6608 28.9628 15.6051C28.965 15.5765 28.9672 15.5486 28.9694 15.5207C28.9738 15.4569 28.9782 15.3931 28.9819 15.3292C28.9826 15.3102 28.9841 15.2903 28.9855 15.2713C28.9899 15.1876 28.9944 15.104 28.9973 15.0204C28.9973 15.0064 28.9973 14.9932 28.9988 14.9793C29.001 14.9103 29.0032 14.8406 29.0046 14.7716C29.0046 14.7452 29.0046 14.7188 29.0061 14.6931C29.0068 14.6359 29.0076 14.5794 29.0076 14.5222C29.0076 14.4936 29.0076 14.465 29.0076 14.4364C29.0076 14.3806 29.0076 14.3248 29.0061 14.2691C29.0061 14.2412 29.0054 14.2141 29.0046 14.1862C29.0032 14.1253 29.0017 14.0637 28.9995 14.0028C28.9995 13.9815 28.998 13.9602 28.9973 13.9389C28.9914 13.7731 28.9819 13.6081 28.9701 13.443C28.9686 13.4217 28.9664 13.3997 28.965 13.3777C28.9606 13.3175 28.9554 13.2574 28.9503 13.1972C28.9481 13.1708 28.9451 13.1444 28.9429 13.1187C28.9378 13.0622 28.9319 13.005 28.926 12.9485C28.9231 12.9228 28.9202 12.8964 28.9172 12.8707C28.9106 12.8106 28.9033 12.7504 28.8959 12.6902C28.8937 12.669 28.8908 12.6484 28.8879 12.6271C28.8666 12.4628 28.8423 12.2992 28.8159 12.1371C28.8137 12.1224 28.8107 12.1077 28.8085 12.093C28.7975 12.027 28.7858 11.9617 28.774 11.8957C28.7696 11.8729 28.7659 11.8509 28.7615 11.8282C28.7505 11.7695 28.7395 11.7108 28.7277 11.6521C28.7233 11.6286 28.7182 11.6059 28.7138 11.5824C28.7013 11.5222 28.6888 11.4621 28.6756 11.4019C28.6712 11.3821 28.6668 11.3623 28.6624 11.3425C28.6462 11.2691 28.6293 11.1958 28.6117 11.1224L28.608 11.1055C28.5897 11.0285 28.5706 10.9522 28.5507 10.8759C28.4413 10.4511 28.312 10.0329 28.1651 9.62206H0.845986C0.685869 10.0725 0.546317 10.534 0.428799 11.0079C-0.0530221 12.9514 -0.116188 14.9008 0.180544 16.7606C0.182013 16.7687 0.183482 16.7775 0.184216 16.7856C0.195234 16.8538 0.206251 16.9213 0.218737 16.9888C0.220941 17.0027 0.223878 17.0174 0.226082 17.0313C0.237099 17.0944 0.248851 17.1583 0.261337 17.2214C0.26501 17.2404 0.268682 17.2588 0.272354 17.2778C0.284106 17.3373 0.295858 17.3974 0.308344 17.4569C0.312751 17.4789 0.317892 17.5016 0.323034 17.5244C0.334786 17.5808 0.347272 17.6373 0.360493 17.6931C0.366368 17.7195 0.372979 17.7452 0.378855 17.7716C0.391341 17.8244 0.403093 17.8772 0.416313 17.9293C0.425862 17.9689 0.436144 18.0086 0.446427 18.0482C0.461851 18.1076 0.477275 18.167 0.4927 18.2265C0.508124 18.2852 0.524282 18.3431 0.540441 18.4018C0.547786 18.4275 0.555131 18.4532 0.562476 18.4788C0.578634 18.5339 0.594059 18.5896 0.610952 18.6447C0.619031 18.6703 0.62711 18.696 0.634455 18.7217C0.651348 18.7767 0.668241 18.8317 0.685869 18.886C0.693948 18.911 0.702028 18.9367 0.710107 18.9616C0.727735 19.0166 0.746097 19.0717 0.764459 19.1267C0.772538 19.1509 0.781352 19.1758 0.790166 19.2008C0.809262 19.2558 0.828359 19.3108 0.84819 19.3659C0.852597 19.3783 0.857004 19.3915 0.861411 19.4047C0.873897 19.4385 0.885649 19.473 0.898135 19.5067H28.1042C28.1166 19.473 28.1277 19.4385 28.1401 19.4047H28.1424C28.1725 19.3196 28.2018 19.2345 28.2312 19.1487C28.2342 19.1406 28.2371 19.1318 28.24 19.1237C28.2775 19.0122 28.3142 18.8992 28.3495 18.7863C28.3546 18.7701 28.3598 18.7547 28.3642 18.7386C28.3965 18.6329 28.4273 18.5265 28.4574 18.4194C28.4641 18.3967 28.4707 18.3747 28.4765 18.3527C28.5118 18.225 28.5456 18.0973 28.5779 17.9682C28.5985 17.8846 28.6183 17.8017 28.6374 17.718C28.6433 17.6909 28.6491 17.6645 28.655 17.6381C28.6675 17.5808 28.6807 17.5236 28.6925 17.4664" fill="#E6392E"/>
</svg>
