<svg width="30" height="29" viewBox="0 0 30 29" fill="none" xmlns="http://www.w3.org/2000/svg">
<mask id="mask0_44_101" style="mask-type:luminance" maskUnits="userSpaceOnUse" x="0" y="0" width="30" height="29">
<path d="M14.4917 0.000732142C7.98193 0.000732142 2.06273 4.41079 0.428499 11.0079C-1.49658 18.7737 3.24598 26.6261 11.0198 28.5469C18.795 30.4691 26.6555 25.7325 28.5798 17.9667C30.5034 10.2009 25.7631 2.34846 17.9878 0.427725C16.8178 0.138662 15.6463 0 14.4931 0H14.4924" fill="white"/>
</mask>
<g mask="url(#mask0_44_101)">
<path d="M30.5034 0.000732422H-1.49658V30.4698H30.5034V0.000732422Z" fill="url(#paint0_radial_44_101)"/>
</g>
<path d="M0.428499 11.0088C2.35211 3.24149 10.214 -1.49284 17.9878 0.429359C25.7631 2.35082 30.5034 10.2025 28.5798 17.9683C26.6555 25.7342 18.795 30.4707 11.0198 28.5485C3.24598 26.627 -1.49658 18.7739 0.428499 11.0088Z" fill="#24356B"/>
<path d="M24.7904 4.27592L18.9594 8.15847V0.70518C18.6413 0.603201 18.3174 0.510026 17.9876 0.42859C15.2517 -0.247849 12.5054 -0.098916 10.0104 0.716185V8.15994L4.2021 4.2928C2.87195 5.631 1.79153 7.24213 1.05704 9.06675L2.59505 10.0909H0.689065C0.593582 10.3917 0.505444 10.6977 0.428323 11.0088C-0.254013 13.7607 -0.0983022 16.5237 0.733134 19.0299H2.63324L1.11139 20.0431C1.84955 21.8142 2.93438 23.429 4.30346 24.7848L10.0104 20.9851V28.2587C10.3409 28.3658 10.6773 28.4626 11.0203 28.547C13.7423 29.2205 16.4746 29.076 18.9594 28.2719V20.9844L24.6891 24.7987C26.0346 23.4752 27.1342 21.8765 27.8892 20.0622L26.3358 19.0277H28.2733C28.3879 18.6807 28.49 18.3263 28.5796 17.9654C29.248 15.2662 29.1107 12.5561 28.3218 10.0887H26.3747L27.9428 9.04474C27.2194 7.26634 26.1485 5.64127 24.7904 4.27372" fill="#F5F1EE"/>
<path d="M7.77996 10.0911L2.39546 6.51371C2.03703 7.05662 1.71312 7.62668 1.42741 8.22315L4.23828 10.0911H7.77996ZM26.5901 6.48583C26.2287 5.93999 25.8292 5.41909 25.3958 4.92533L18.9595 9.20112V10.0918H21.1637L26.5901 6.48657V6.48583ZM2.43512 22.5179C2.79796 23.0622 3.19825 23.5824 3.63233 24.0747L10.0099 19.8378V19.03H7.68521L2.43512 22.5179ZM28.7833 11.9531H17.0954V0.238686C15.3238 -0.0841258 13.5596 -0.0701878 11.874 0.241619V11.9531H0.227996C-0.089301 13.7227 -0.0680008 15.4842 0.250031 17.1665H11.874V28.732C13.6456 29.0599 15.4098 29.0504 17.0954 28.743V17.1665H28.7539C29.0888 15.3984 29.0837 13.6369 28.7833 11.9531ZM21.2879 19.0308L26.5644 22.5362C26.9258 21.9955 27.2526 21.4269 27.542 20.8326L24.8295 19.0308H21.2879Z" fill="#E52A18"/>
<path d="M18.9595 2.21273V3.15182C19.0168 2.97354 19.0461 2.8048 19.0469 2.64633C19.0469 2.49079 19.019 2.34552 18.9595 2.212" fill="#333A63"/>
<defs>
<radialGradient id="paint0_radial_44_101" cx="0" cy="0" r="1" gradientUnits="userSpaceOnUse" gradientTransform="translate(13.7482 14.0673) scale(14.5039 14.4877)">
<stop stop-color="white"/>
<stop offset="0.78" stop-color="white"/>
<stop offset="0.82" stop-color="#F9F8F7"/>
<stop offset="0.88" stop-color="#E9E6E3"/>
<stop offset="0.96" stop-color="#CFC8C1"/>
<stop offset="1" stop-color="#BFB6AD"/>
</radialGradient>
</defs>
</svg>
