<svg width="30" height="29" viewBox="0 0 30 29" fill="none" xmlns="http://www.w3.org/2000/svg">
<path d="M0.428499 11.0081C2.35211 3.2408 10.214 -1.49354 17.9878 0.42793C25.7631 2.3494 30.5034 10.2011 28.5798 17.9669C26.6555 25.7327 18.795 30.4693 11.0198 28.5471C3.24598 26.6263 -1.49658 18.7732 0.428499 11.0081Z" fill="#E73138"/>
<path d="M0.845703 9.62206H28.1634C26.582 5.20614 22.8883 1.63907 17.9878 0.427786C10.6885 -1.37703 3.31063 2.6882 0.845703 9.62206Z" fill="#F5F1EE"/>
<path d="M28.6942 17.4649C28.7008 17.4341 28.7067 17.4033 28.7133 17.3725C28.7243 17.3189 28.7353 17.2646 28.7449 17.2111C28.7507 17.1795 28.7574 17.1487 28.7632 17.1172C28.7735 17.0614 28.7831 17.0057 28.7934 16.9499C28.7985 16.922 28.8036 16.8934 28.808 16.8655C28.8198 16.7958 28.8308 16.7261 28.8411 16.6564C28.8433 16.6425 28.8455 16.6293 28.8477 16.6154C28.8602 16.5317 28.8719 16.4481 28.883 16.3644C28.8859 16.3424 28.8888 16.3204 28.891 16.2977C28.8991 16.236 28.9065 16.1752 28.9131 16.1135C28.9167 16.0842 28.9197 16.0548 28.9226 16.0262C28.9285 15.9712 28.9344 15.9162 28.9395 15.8611C28.9425 15.8311 28.9454 15.8003 28.9483 15.7702C28.9535 15.7144 28.9579 15.6594 28.9623 15.6036C28.9645 15.5757 28.9667 15.5471 28.9689 15.5193C28.9733 15.4554 28.9777 15.3916 28.9814 15.3278C28.9821 15.308 28.9836 15.2889 28.9851 15.2698C28.9895 15.1862 28.9939 15.1025 28.9968 15.0189C28.9968 15.005 28.9975 14.9918 28.9983 14.9778C29.0005 14.9088 29.0027 14.8392 29.0041 14.7702C29.0041 14.7438 29.0049 14.7181 29.0056 14.6917C29.0056 14.6345 29.0071 14.578 29.0071 14.5207C29.0071 14.4921 29.0071 14.4635 29.0071 14.4349C29.0071 14.3791 29.0064 14.3234 29.0056 14.2676C29.0056 14.2397 29.0049 14.2126 29.0041 14.1847C29.0027 14.1238 29.0012 14.0622 28.999 14.0013C28.999 13.98 28.9983 13.9588 28.9968 13.9375C28.9909 13.7717 28.9814 13.6066 28.9696 13.4415C28.9682 13.4195 28.966 13.3982 28.9645 13.3762C28.9601 13.3161 28.9549 13.2559 28.9498 13.195C28.9476 13.1686 28.9454 13.1429 28.9424 13.1165C28.9373 13.06 28.9314 13.0028 28.9248 12.9463C28.9219 12.9206 28.9197 12.8942 28.9167 12.8685C28.9101 12.8084 28.9028 12.7482 28.8954 12.688C28.8925 12.6668 28.8903 12.6462 28.8874 12.625C28.8661 12.4606 28.8418 12.297 28.8154 12.1341C28.8132 12.1195 28.8102 12.1048 28.808 12.0901C28.797 12.0241 28.786 11.9588 28.7735 11.8928C28.7691 11.8707 28.7654 11.848 28.761 11.8253C28.75 11.7666 28.739 11.7079 28.7272 11.6492C28.7228 11.6257 28.7177 11.6022 28.7133 11.5795C28.7008 11.5193 28.6883 11.4592 28.6751 11.3997C28.6707 11.3799 28.6663 11.3601 28.6619 11.3396C28.6457 11.2662 28.6281 11.1928 28.6112 11.1195L28.6075 11.1033C28.5892 11.0263 28.5701 10.95 28.5502 10.8737C28.4408 10.4489 28.3115 10.0307 28.1646 9.61987H0.845498C0.685381 10.0703 0.545829 10.5318 0.428311 11.0058C-0.0535103 12.9492 -0.116676 14.8978 0.180056 16.7584C0.181525 16.7665 0.182994 16.7753 0.183728 16.7834C0.194745 16.8516 0.205763 16.9191 0.218249 16.9866C0.220452 17.0005 0.22339 17.0152 0.225594 17.0291C0.236611 17.0922 0.248363 17.1561 0.260849 17.2192C0.264521 17.2375 0.268194 17.2566 0.271866 17.2757C0.283618 17.3358 0.29537 17.3952 0.307856 17.4547C0.312997 17.4774 0.317404 17.4994 0.322546 17.5222C0.334297 17.5787 0.346784 17.6351 0.360004 17.6916C0.36588 17.718 0.372491 17.7437 0.378366 17.7701C0.390853 17.823 0.402604 17.8758 0.415825 17.9279C0.425373 17.9675 0.435656 18.0071 0.445939 18.0467C0.461363 18.1062 0.476787 18.1656 0.492211 18.225C0.507636 18.2837 0.523794 18.3417 0.539953 18.4004C0.547298 18.426 0.554643 18.4517 0.561987 18.4774C0.578146 18.5324 0.59357 18.5882 0.610463 18.6432C0.618543 18.6689 0.626622 18.6946 0.633967 18.7202C0.65086 18.7753 0.667753 18.8295 0.685381 18.8846C0.69346 18.9103 0.701539 18.9352 0.710353 18.9601C0.727981 19.0152 0.746343 19.0702 0.765439 19.1245C0.773519 19.1494 0.782333 19.1736 0.790412 19.1986C0.809508 19.2536 0.82934 19.3086 0.848436 19.3637C0.852843 19.3769 0.85725 19.3893 0.861657 19.4025C0.874143 19.4363 0.885895 19.4708 0.898381 19.5045H28.1044C28.1169 19.4708 28.1279 19.4363 28.1404 19.4025H28.1426C28.1734 19.3174 28.2021 19.2323 28.2307 19.1465C28.2337 19.1384 28.2366 19.1296 28.2395 19.1215C28.277 19.01 28.3137 18.897 28.349 18.7841C28.3541 18.7687 28.3593 18.7525 28.3637 18.7371C28.396 18.6315 28.4268 18.5251 28.457 18.418C28.4636 18.3952 28.4702 18.3732 28.4761 18.3505C28.5113 18.2228 28.5451 18.0952 28.5774 17.966C28.598 17.8831 28.6178 17.7995 28.6369 17.7158C28.6428 17.6894 28.6487 17.6623 28.6545 17.6359C28.667 17.5787 28.6795 17.5214 28.692 17.4642" fill="#00528F"/>
</svg>
